<svg width="100" height="100" viewBox="0 0 100 100" fill="none" xmlns="http://www.w3.org/2000/svg">
<path d="M44.0019 44.8845C45.7036 46.2227 47.8473 47.0321 50.1766 47.0321C54.3967 47.0321 58.0074 44.4692 59.4842 40.7971C59.7287 40.1762 60.3257 38.355 60.3257 36.5525M42.239 43.1084C40.9331 41.422 40.1562 39.325 40.1562 37.0883C40.1563 31.7133 50.1766 17.8457 50.1766 17.8457C50.1766 17.8457 55.4124 25.0075 58.3145 31.0683L58.7256 32.0034" stroke="#818182" stroke-width="2" stroke-linecap="round" stroke-linejoin="round"/>
<path d="M58.7128 80.9528C60.4145 82.2911 62.5582 83.1005 64.8875 83.1005C69.1076 83.1005 72.7184 80.5375 74.1951 76.8655C74.4396 76.2445 75.0367 74.4233 75.0367 72.6209M56.9499 79.1767C55.644 77.4904 54.8672 75.3933 54.8672 73.1567C54.8672 67.7817 64.8875 53.9141 64.8875 53.9141C64.8875 53.9141 70.1233 61.0758 73.0255 67.1367L73.4366 68.0718" stroke="#818182" stroke-width="2" stroke-linecap="round" stroke-linejoin="round"/>
<path d="M29.291 80.9528C30.9926 82.2911 33.1363 83.1005 35.4656 83.1005C39.6857 83.1005 43.2965 80.5375 44.7733 76.8655C45.0177 76.2445 45.6148 74.4233 45.6148 72.6209M27.528 79.1767C26.2221 77.4904 25.4453 75.3933 25.4453 73.1567C25.4453 67.7817 35.4656 53.9141 35.4656 53.9141C35.4656 53.9141 40.7014 61.0758 43.6036 67.1367L44.0147 68.0718" stroke="#818182" stroke-width="2" stroke-linecap="round" stroke-linejoin="round"/>
<path d="M22 15L78.5932 85M78.5932 15L22 85" stroke="#818182" stroke-width="2" stroke-linecap="round"/>
</svg>
