<svg width="100" height="100" viewBox="0 0 100 100" fill="none" xmlns="http://www.w3.org/2000/svg">
<path d="M10 55.334L16.1303 78.9821C16.1874 79.2026 16.3865 79.3566 16.6143 79.3566H39.1931C39.4209 79.3566 39.6199 79.2026 39.6771 78.9821L45.8073 55.334" stroke="#818182" stroke-width="2" stroke-linecap="round"/>
<path d="M54.4219 55.334L60.5521 78.9821C60.6093 79.2026 60.8083 79.3566 61.0361 79.3566H83.6149C83.8428 79.3566 84.0418 79.2026 84.0989 78.9821L90.2292 55.334" stroke="#818182" stroke-width="2" stroke-linecap="round"/>
<path d="M10.9062 59.207C10.9062 59.207 21.0092 62.5828 27.2547 61.7831C32.8288 61.0693 35.3559 57.182 40.9708 57.3804C42.6073 57.4382 45.1272 57.9424 45.1272 57.9424" stroke="#818182" stroke-width="2" stroke-linecap="round"/>
<path d="M18.4043 55.334C18.4043 55.334 21.78 51.2527 20.9803 48.7296C20.2666 46.4779 16.3792 45.457 16.5776 43.1887C16.6355 42.5276 17.1397 41.5096 17.1397 41.5096" stroke="#818182" stroke-width="2" stroke-linecap="round"/>
<path d="M27.4746 55.334C27.4746 55.334 30.8503 51.2527 30.0506 48.7296C29.3369 46.4779 25.4496 45.457 25.648 43.1887C25.7058 42.5276 26.21 41.5096 26.21 41.5096" stroke="#818182" stroke-width="2" stroke-linecap="round"/>
<path d="M36.5371 55.334C36.5371 55.334 39.9128 51.2527 39.1131 48.7296C38.3994 46.4779 34.5121 45.457 34.7105 43.1887C34.7683 42.5276 35.2725 41.5096 35.2725 41.5096" stroke="#818182" stroke-width="2" stroke-linecap="round"/>
<path d="M28.4688 39.3569C28.4688 39.3569 28.4621 21 49.4319 21C71.7548 21 71.7548 40.9433 71.7548 40.9433" stroke="#818182" stroke-width="2" stroke-linecap="round"/>
<path d="M55.3281 59.207C55.3281 59.207 65.431 62.5828 71.6766 61.7831C77.2507 61.0693 79.7777 57.182 85.3927 57.3804C87.0292 57.4382 89.5491 57.9424 89.5491 57.9424" stroke="#818182" stroke-width="2" stroke-linecap="round"/>
<path d="M70.6481 55.5548L64.7594 44.92C64.3904 44.2535 64.8724 43.4355 65.6343 43.4355H77.3238C78.0828 43.4355 78.5651 44.248 78.2017 44.9144L72.4009 55.5492C72.0232 56.2415 71.0302 56.2447 70.6481 55.5548Z" fill="#818182"/>
<path d="M69.6254 64.9243L70.0821 67.1201H74.5603L75.017 64.9243C75.1461 64.3035 74.6721 63.7207 74.0379 63.7207H70.6044C69.9702 63.7207 69.4962 64.3034 69.6254 64.9243Z" fill="#818182"/>
<path d="M76.07 65.7113L74.8435 66.4453C74.4369 66.6886 74.2569 67.1838 74.4123 67.6314L75.3474 70.325C75.5028 70.7726 75.951 71.0497 76.4208 70.9887L77.8383 70.8048C78.4672 70.7231 78.8623 70.0842 78.6543 69.4851L77.5282 66.2415C77.3202 65.6424 76.6142 65.3857 76.07 65.7113Z" fill="#818182"/>
<path d="M68.5081 65.7113L70.4326 66.863L68.9639 71.0934L66.7398 70.8048C66.1109 70.7231 65.7158 70.0842 65.9238 69.4851L67.0499 66.2415C67.2579 65.6424 67.9639 65.3857 68.5081 65.7113Z" fill="#818182"/>
<path d="M67.2291 72.1948L68.8727 70.6688L72.5241 73.2615L71.6253 75.3162C71.3711 75.8973 70.6472 76.098 70.1301 75.7308L67.3305 73.743C66.8134 73.3758 66.7643 72.6263 67.2291 72.1948Z" fill="#818182"/>
<path d="M77.5131 72.228L75.8694 70.702L72.2181 73.2947L73.1169 75.3494C73.3711 75.9305 74.095 76.1312 74.6121 75.764L77.4116 73.7762C77.9287 73.4091 77.9779 72.6595 77.5131 72.228Z" fill="#818182"/>
<path d="M68.6953 70.8585L69.9418 67.1192L74.361 67.0059L75.7208 70.8585L72.3214 73.4648L68.6953 70.8585Z" fill="#818182"/>
</svg>
