<svg width="100" height="100" viewBox="0 0 100 100" fill="none" xmlns="http://www.w3.org/2000/svg">
<path d="M71.0897 37.9044V85.1098C71.0897 85.4411 70.821 85.7098 70.4897 85.7098H47.9964M47.9964 85.7098H24.6C24.2686 85.7098 24 85.4411 24 85.1098V22.4071C24 22.0096 24.3764 21.7213 24.7557 21.8402C31.5829 23.9805 44.6635 30.8728 47.9766 43.3771C47.9897 43.4266 47.9964 43.4781 47.9964 43.5293V85.7098Z" stroke="#818182" stroke-width="2" stroke-linecap="round"/>
<path d="M50.7049 15.9509C46.9635 12.9999 40.7709 17.6034 47.8666 20.4363C54.0592 23.1512 48.6407 27.7546 43.8672 24.5676" stroke="#818182" stroke-width="2" stroke-linecap="round"/>
<path d="M54.5859 15.125V25.3943" stroke="#818182" stroke-width="2" stroke-linecap="round"/>
<path d="M68.7656 15.125V25.3943" stroke="#818182" stroke-width="2" stroke-linecap="round"/>
<path d="M68.7656 21.6171L70.9588 19.3875M75.3453 15.125L70.9588 19.3875M70.9588 19.3875L75.7323 25.3943" stroke="#818182" stroke-width="2" stroke-linecap="round"/>
<path d="M59.7266 15.125V24.8943C59.7266 25.1704 59.9504 25.3943 60.2266 25.3943H65.5321" stroke="#818182" stroke-width="2" stroke-linecap="round"/>
</svg>
