<svg width="100" height="100" viewBox="0 0 100 100" fill="none" xmlns="http://www.w3.org/2000/svg">
<path d="M8 39.2906C8 37.415 9.52049 35.8945 11.3961 35.8945H23.9989C32.0435 35.8945 38.565 42.416 38.565 50.4607V50.4607C38.565 58.5053 32.0435 65.0268 23.9989 65.0268H11.3961C9.52049 65.0268 8 63.5063 8 61.6307V39.2906Z" stroke="#818182" stroke-width="2"/>
<path d="M91.1016 39.2906C91.1016 37.415 89.5811 35.8945 87.7055 35.8945H75.1027C67.058 35.8945 60.5366 42.416 60.5366 50.4607V50.4607C60.5366 58.5053 67.058 65.0268 75.1027 65.0268H87.7055C89.5811 65.0268 91.1016 63.5063 91.1016 61.6307V39.2906Z" stroke="#818182" stroke-width="2"/>
<path d="M42.7742 38.0344C43.3415 37.2879 44.2252 36.8496 45.1627 36.8496H65.9746C70.1095 36.8496 72.4574 41.5829 69.9554 44.875L56.0851 63.1256C55.5178 63.872 54.6342 64.3104 53.6966 64.3104H32.8848C28.7499 64.3104 26.402 59.577 28.9039 56.285L42.7742 38.0344Z" fill="#FAEFE8"/>
<path d="M42.7742 38.0344C43.3415 37.2879 44.2252 36.8496 45.1627 36.8496H65.9746C70.1095 36.8496 72.4574 41.5829 69.9554 44.875L56.0851 63.1256C55.5178 63.872 54.6342 64.3104 53.6966 64.3104H32.8848C28.7499 64.3104 26.402 59.577 28.9039 56.285L42.7742 38.0344Z" stroke="#818182" stroke-width="2"/>
<path d="M27.1016 23L72.2327 77.9215M72.2327 23L27.1016 77.9215" stroke="#818182" stroke-width="2" stroke-linecap="round"/>
</svg>
