<svg width="100" height="100" viewBox="0 0 100 100" fill="none" xmlns="http://www.w3.org/2000/svg">
<path d="M14 35.8594L26.5918 84.6243C26.6488 84.8451 26.8479 84.9993 27.0759 84.9993H73.8838C74.1118 84.9993 74.3109 84.8451 74.3679 84.6243L86.9597 35.8594" stroke="#818182" stroke-width="2.25" stroke-linecap="round"/>
<path d="M55.0782 70.5605H58.6182C59.163 70.5605 59.4258 71.2281 59.0273 71.5995L56.699 73.7692C56.4693 73.9832 56.6905 74.3971 57.0025 74.3622C58.1851 74.2298 59.464 74.4679 59.7804 76.0764C60.1422 77.915 58.3336 80.4891 55.0781 77.915" stroke="#818182" stroke-width="1.5" stroke-linecap="round"/>
<path d="M68.3925 74.4994C68.3925 76.9855 66.7933 79.0008 65.2978 79.0008C63.8023 79.0008 62.2031 76.9855 62.2031 74.4994C62.2031 72.0134 63.8023 69.998 65.2978 69.998C66.7933 69.998 68.3925 72.0134 68.3925 74.4994Z" stroke="#818182" stroke-width="1.5"/>
<path d="M72.1962 70.1919C72.1962 70.7444 71.7483 71.1923 71.1958 71.1923C70.6432 71.1923 70.1953 70.7444 70.1953 70.1919C70.1953 69.6393 70.6432 69.1914 71.1958 69.1914C71.7483 69.1914 72.1962 69.6393 72.1962 70.1919Z" stroke="#818182"/>
<path d="M16.0625 43.8361C16.0625 43.8361 36.5777 50.5951 49.2601 48.9939C60.579 47.5649 65.7105 39.7815 77.1123 40.1787C80.4355 40.2945 85.5524 41.3041 85.5524 41.3041" stroke="#818182" stroke-width="2.25" stroke-linecap="round"/>
<path d="M56.1804 48.0094C52.523 48.0094 48.1803 51.3555 45.5276 53.261C42.3943 55.5116 39.929 57.3366 36.2995 61.9824C34.1087 64.7866 30.8534 64.8409 30.7666 63.2017C30.7605 63.0867 30.3728 63.1494 30.3913 63.0141C30.4628 62.4892 31.7979 61.1237 33.0172 59.169C33.2922 58.7282 33.6085 58.2618 33.955 57.7795C31.6106 60.7788 29.5472 59.5443 31.4227 56.6372C29.2657 54.3865 32.4004 51.2681 33.955 48.8057C33.2672 48.8841 31.948 48.7033 32.173 47.3529C32.4544 45.6649 38.0811 40.4929 41.082 38.6713C45.1888 34.4175 50.9577 27.9816 53.367 27.0968C55.1488 26.4403 57.4375 22.2664 61.1506 14.9993L70.9036 21.47C69.2072 25.8148 67.04 30.8921 66.9649 34.0364L66.9649 40.8823C67.5276 45.2899 65.3707 48.8057 64.4329 51.9481C63.4951 55.0905 62.1823 57.7195 60.8313 61.0181C59.4741 64.3319 56.0247 68.2849 55.6624 66.6403C54.9857 63.5684 56.6211 62.3752 57.3365 59.2286C57.9803 56.3965 58.1704 53.9085 58.3373 51.9481C58.6374 48.4221 57.0244 47.8531 56.1804 48.0094Z" fill="#FAEFE8"/>
<path d="M70.9036 21.47C69.2072 25.8148 67.04 30.8921 66.9649 34.0364C66.9649 34.2552 66.9649 38.8191 66.9649 40.8823C67.5276 45.2899 65.3707 48.8057 64.4329 51.9481C63.4951 55.0905 62.1823 57.7195 60.8313 61.0181C59.4741 64.3319 56.0247 68.2849 55.6624 66.6403C54.9857 63.5684 56.6211 62.3752 57.3365 59.2286C57.9803 56.3965 58.1704 53.9085 58.3373 51.9481C58.6374 48.4221 57.0244 47.8531 56.1804 48.0094C52.523 48.0094 48.1803 51.3555 45.5276 53.261C42.3943 55.5116 39.929 57.3366 36.2995 61.9824C34.1087 64.7866 30.8534 64.8409 30.7666 63.2017C30.7605 63.0867 30.3728 63.1494 30.3913 63.0141C30.4628 62.4892 31.7979 61.1237 33.0172 59.169C33.2922 58.7282 33.6085 58.2618 33.955 57.7795M49.2407 41.914C48.4904 42.1953 43.5196 46.7902 42.3943 48.0094C41.6467 48.8193 36.7905 53.8329 33.955 57.7795M61.1506 14.9993C57.4375 22.2664 55.1488 26.4403 53.367 27.0968C50.9577 27.9816 45.1888 34.4175 41.082 38.6713M31.4227 56.6372C29.5472 59.5443 31.6106 60.7788 33.955 57.7795M31.4227 56.6372C29.2657 54.3865 32.4004 51.2681 33.955 48.8057M31.4227 56.6372C32.3604 55.5119 33.955 52.9798 35.7366 51.1978M33.955 48.8057C35.1115 46.9739 34.7056 47.91 37.0498 43.9293C38.213 41.9538 39.6042 40.2019 41.082 38.6713M33.955 48.8057C33.2672 48.8841 31.948 48.7033 32.173 47.3529C32.4544 45.6649 38.0811 40.4929 41.082 38.6713M39.8629 46.2276C40.8632 44.6201 43.6328 41.1317 46.7087 40.0382" stroke="#818182" stroke-width="2.25" stroke-linecap="round" stroke-linejoin="round"/>
</svg>
