<svg width="24" height="24" viewBox="0 0 24 24" fill="none" xmlns="http://www.w3.org/2000/svg">
<path opacity="0.5" d="M13.8969 21.4998C18.3704 21.4998 21.9969 17.8733 21.9969 13.3998C21.9969 8.9263 18.3704 5.2998 13.8969 5.2998C9.42337 5.2998 5.79688 8.9263 5.79688 13.3998C5.79688 17.8733 9.42337 21.4998 13.8969 21.4998Z" fill="white"/>
<path d="M11.4962 9.5998C14.3962 6.4998 17.4962 3.7998 21.4962 2.2998C17.7962 4.1998 14.7962 6.9998 12.0962 10.3998C13.2962 11.5998 14.3962 12.7998 15.5962 13.8998C17.3962 15.3998 19.2962 16.7998 21.1962 18.1998C21.5962 18.4998 21.8962 18.9998 21.5962 19.4998C21.2962 19.9998 20.7962 20.1998 20.0962 19.9998C19.8962 19.8998 19.5962 19.7998 19.3962 19.6998C17.5962 18.2998 15.7962 16.8998 14.1962 15.3998C12.9962 14.2998 12.0962 12.9998 10.9962 11.6998C10.2962 12.6998 9.49616 13.5998 8.79616 14.5998C7.19616 16.5998 5.59616 18.4998 3.99616 20.3998C3.69616 20.7998 3.29616 21.0998 2.79616 20.6998C2.19616 20.2998 2.29616 19.7998 2.79616 19.2998C5.29616 16.5998 7.69616 13.8998 10.0962 11.1998C10.1962 10.9998 10.2962 10.8998 10.3962 10.7998C9.29616 9.0998 8.19616 7.4998 7.19616 5.7998C6.99616 5.3998 6.49616 4.9998 7.09616 4.6998C7.29616 4.5998 7.89616 4.8998 8.09616 5.0998C9.29616 6.4998 10.2962 7.9998 11.4962 9.5998Z" fill="#B88C93"/>
<path d="M3.2 21.2C3 21.2 2.8 21.1 2.5 21C2.2 20.7 2 20.5 2 20.1C2 19.7 2.1 19.4 2.5 19C4.4 16.9 6.2 14.9 8.1 12.8L9.8 10.9C9.9 10.9 9.9 10.8 10 10.7L9.3 9.7C8.5 8.4 7.7 7.2 6.9 6L6.8 5.8C6.6 5.6 6.4 5.3 6.5 4.9C6.5 4.7 6.7 4.5 7 4.4C7.4 4.2 8.2 4.6 8.5 4.9C9.3 5.9 10.1 7 10.9 8.2L11.5 9C14 6.4 17.2 3.5 21.3 2L21.6 2.7C18.4 4.4 15.5 6.8 12.5 10.4C12.8 10.7 13.1 11 13.3 11.3C14.1 12.1 14.9 12.9 15.7 13.7C16.9 14.7 18.2 15.7 19.5 16.7C20.1 17.1 20.7 17.6 21.3 18C22.2 18.7 22 19.4 21.7 19.8C21.3 20.5 20.6 20.7 19.8 20.4C19.5 20.3 19.3 20.2 19 20C18.5 19.6 18 19.2 17.6 18.9C16.3 17.9 15 16.9 13.8 15.7C13 14.9 12.3 14.1 11.6 13.1C11.4 12.8 11.1 12.5 10.9 12.2L10.5 12.7C10 13.4 9.5 14 8.9 14.7C7.3 16.7 5.7 18.6 4.1 20.6C3.9 21 3.6 21.2 3.2 21.2ZM7.3 5C7.2 5 7.2 5.1 7.3 5C7.2 5.1 7.3 5.3 7.4 5.4C7.4 5.5 7.5 5.5 7.5 5.6C8.3 6.8 9.1 8 9.9 9.3L10.9 10.8L10.6 11.1C10.5 11.2 10.4 11.3 10.4 11.4L8.7 13.3C6.8 15.4 5 17.4 3.1 19.5C2.9 19.7 2.8 19.9 2.8 20.1C2.8 20.2 2.9 20.3 3.1 20.4C3.3 20.5 3.4 20.6 3.8 20.1C5.4 18.2 7 16.2 8.6 14.3C9.1 13.7 9.6 13 10.1 12.3L11.1 11L11.4 11.3C11.7 11.7 12.1 12.1 12.4 12.5C13.1 13.4 13.8 14.2 14.5 15C15.7 16.1 17 17.1 18.3 18.1C18.8 18.5 19.3 18.9 19.7 19.2C19.9 19.3 20.1 19.4 20.3 19.5C20.7 19.7 21.1 19.6 21.3 19.1C21.4 18.9 21.5 18.7 21 18.3C20.4 17.8 19.8 17.4 19.2 17C17.9 16 16.6 15 15.4 14C14.5 13.3 13.7 12.4 12.9 11.6C12.5 11.4 12.2 11 11.8 10.6L11.6 10.4L11.8 10.1C12.7 9.1 13.5 8.1 14.4 7.3C13.4 8.2 12.6 9 11.8 9.8L11.5 10.1L10.3 8.6C9.5 7.5 8.7 6.4 7.9 5.3C7.8 5.2 7.4 5 7.3 5Z" fill="#B88C93"/>
</svg>
